<svg width="24" height="25" viewBox="0 0 24 25" fill="none" xmlns="http://www.w3.org/2000/svg">
<g id="phone">
<path id="Icon" d="M21.9999 17.6193V20.6193C22.001 20.8978 21.944 21.1735 21.8324 21.4287C21.7208 21.6838 21.5572 21.9129 21.3519 22.1012C21.1467 22.2895 20.9044 22.4328 20.6406 22.522C20.3768 22.6112 20.0972 22.6444 19.8199 22.6193C16.7427 22.285 13.7869 21.2335 11.1899 19.5493C8.7737 18.014 6.72521 15.9655 5.18987 13.5493C3.49985 10.9405 2.44812 7.97031 2.11987 4.87932C2.09488 4.60278 2.12775 4.32408 2.21637 4.06094C2.305 3.7978 2.44744 3.556 2.63464 3.35094C2.82183 3.14587 3.04968 2.98203 3.30366 2.86984C3.55765 2.75765 3.83221 2.69958 4.10987 2.69932H7.10987C7.59518 2.69454 8.06566 2.86639 8.43363 3.18285C8.8016 3.4993 9.04195 3.93876 9.10987 4.41932C9.23649 5.37938 9.47132 6.32204 9.80987 7.22932C9.94442 7.58724 9.97353 7.97623 9.89378 8.3502C9.81402 8.72416 9.62874 9.06743 9.35987 9.33932L8.08987 10.6093C9.51343 13.1129 11.5863 15.1858 14.0899 16.6093L15.3599 15.3393C15.6318 15.0705 15.975 14.8852 16.349 14.8054C16.723 14.7257 17.1119 14.7548 17.4699 14.8893C18.3771 15.2279 19.3198 15.4627 20.2799 15.5893C20.7656 15.6578 21.2093 15.9025 21.5264 16.2768C21.8435 16.6511 22.012 17.1289 21.9999 17.6193Z" stroke="white" stroke-width="2" stroke-linecap="round" stroke-linejoin="round"/>
</g>
</svg>
