<svg width="27" height="28" viewBox="0 0 27 28" fill="none" xmlns="http://www.w3.org/2000/svg">
<g id="star" clip-path="url(#clip0_8672_13028)">
<path id="Vector" d="M26.9294 10.7452C26.7516 10.1985 26.2667 9.81138 25.6953 9.75968L17.9012 9.05208L14.8209 1.84053C14.5935 1.31071 14.076 0.96875 13.5 0.96875C12.9241 0.96875 12.4064 1.31071 12.1804 1.84053L9.10014 9.05208L1.3048 9.75968C0.733366 9.81241 0.249479 10.1995 0.0706733 10.7452C-0.107102 11.2919 0.0570775 11.8915 0.489259 12.2706L6.38098 17.4368L4.64381 25.0879C4.51671 25.6505 4.73506 26.2322 5.20185 26.5697C5.45276 26.752 5.74754 26.843 6.04335 26.843C6.29755 26.843 6.55196 26.7754 6.77917 26.6395L13.5 22.6209L20.2197 26.6395C20.7126 26.9341 21.3325 26.9071 21.7982 26.5697C22.265 26.2322 22.4834 25.6505 22.3563 25.0879L20.6191 17.4368L26.5108 12.2706C26.9428 11.8915 27.1072 11.2931 26.9294 10.7452Z" fill="#AB9987"/>
</g>
<defs>
<clipPath id="clip0_8672_13028">
<rect width="27" height="27" fill="white" transform="translate(0 0.388672)"/>
</clipPath>
</defs>
</svg>
